<svg height="512pt" viewBox="-59 0 512 512.00035" width="512pt" xmlns="http://www.w3.org/2000/svg">
  <path
    d="m385.515625 197.570312c0 66.496094-34.355469 124.960938-86.28125 158.625-7.824219 5.078126-14.355469 11.894532-18.949219 20.003907l-67.847656 119.851562c-.152344.269531-.308594.523438-.480469.78125-7.25 11.527344-24.375 11.269531-31.195312-.78125l-67.84375-119.851562c-4.589844-8.097657-11.109375-14.917969-18.921875-19.972657-52.671875-34.132812-87.277344-93.78125-86.292969-161.441406 1.550781-107.722656 94.578125-194.382812 204.273437-185.507812 97.148438 7.8125 173.539063 89.128906 173.539063 188.292968zm0 0"
    fill="#44bfd7"/>
  <path
    d="m385.515625 197.570312c0 66.496094-34.355469 124.960938-86.28125 158.625-7.824219 5.078126-14.355469 11.894532-18.949219 20.003907l-67.847656 119.851562c-.152344.269531-.308594.523438-.480469.78125-.175781-.257812-.328125-.511719-.480469-.78125l-67.847656-119.851562c-4.585937-8.097657-11.105468-14.917969-18.917968-19.972657-52.675782-34.132812-87.277344-93.78125-86.292969-161.441406 1.402343-97.464844 77.691406-177.726562 173.558593-185.507812 97.148438 7.8125 173.539063 89.128906 173.539063 188.292968zm0 0"
    fill="#7cd2e3"/>
  <path
    d="m336.089844 197.34375c0 77.058594-62.480469 139.492188-139.488282 139.492188-77.039062 0-139.492187-62.453126-139.492187-139.492188 0-82.804688 71.878906-147.746094 154.847656-138.636719 69.8125 7.644531 124.132813 66.800781 124.132813 138.636719zm0 0"
    fill="#c2eaf2"/>
  <path
    d="m336.089844 197.34375c0 71.851562-54.320313 131.003906-124.132813 138.652344-69.8125-7.648438-124.132812-66.800782-124.132812-138.652344 0-71.835938 54.320312-130.992188 124.132812-138.636719 69.8125 7.644531 124.132813 66.800781 124.132813 138.636719zm0 0"
    fill="#def4f8"/>
  <path
    d="m286.804688 156.957031-79.464844 86.027344-25.574219 27.683594c-13.289063 13.894531-35.6875 13.207031-48.097656-1.472657l-21.816407-25.453124c-13.144531-15.734376-25.125-31.183594-25.625-31.828126-7.699218-9.953124-5.875-24.253906 4.0625-31.964843 1.722657-1.328125 3.566407-2.375 5.488282-3.140625 9.203125-3.6875 20.097656-1.015625 26.476562 7.21875 11.496094 14.84375 25.226563 31.613281 35.359375 43.097656 4.804688-5.464844 10.933594-12.222656 18.777344-20.667969 6.625-7.144531 14.488281-15.5 23.8125-25.316406 26.855469-28.277344 53.789063-55.789063 54.054687-56.0625 8.796876-8.988281 23.21875-9.144531 32.210938-.339844.757812.746094 1.453125 1.527344 2.078125 2.34375 6.867187 8.855469 6.316406 21.644531-1.742187 29.875zm0 0"
    fill="#6dc54a"/>
  <path
    d="m288.546875 127.082031-73.015625 79.046875-25.574219 27.683594c-13.289062 13.890625-35.691406 13.207031-48.097656-1.476562l-21.816406-25.449219c-10.742188-12.859375-20.703125-25.523438-24.265625-30.078125 9.203125-3.6875 20.097656-1.015625 26.476562 7.21875 11.496094 14.84375 25.226563 31.613281 35.359375 43.097656 4.804688-5.464844 10.933594-12.222656 18.777344-20.667969 6.625-7.144531 14.488281-15.5 23.8125-25.316406 26.855469-28.277344 53.789063-55.789063 54.054687-56.0625 8.796876-8.988281 23.21875-9.144531 32.210938-.339844.757812.746094 1.453125 1.527344 2.078125 2.34375zm0 0"
    fill="#82cd64"/>
  <path
    d="m193.800781.0234375c-105.929687 1.4726565-192.253906 87.7226565-193.7773435 193.6835935-1.0078125 67.257813 32.1562505 130.628907 89.8007815 167.984375 6.824219 4.421875 12.5 10.410156 16.40625 17.316406l29.824219 52.683594c2.089843 3.6875 6.777343 4.988282 10.464843 2.898438 3.691407-2.089844 4.988281-6.773438 2.898438-10.464844l-29.820313-52.683594c-5.121094-9.046875-12.527344-16.875-21.421875-22.636718-52.035156-33.71875-83.722656-91.484376-82.796875-154.875 1.40625-97.726563 82.671875-178.570313 181.222656-178.570313 99.9375 0 181.242188 81.304687 181.242188 181.242187 0 61.683594-30.945312 118.570313-82.78125 152.179688-8.917969 5.78125-16.339844 13.621094-21.460938 22.664062l-67.84375 119.851563c-4.03125 7.121094-14.277343 7.125-18.3125.003906l-22.894531-40.445312c-2.089843-3.691407-6.773437-4.992188-10.464843-2.902344-3.691407 2.089844-4.992188 6.773437-2.902344 10.464844l22.898437 40.445312c9.914063 17.511719 35.117188 17.519531 45.039063 0l67.84375-119.851562c3.910156-6.902344 9.597656-12.902344 16.449218-17.34375 56.222657-36.449219 89.785157-98.160157 89.785157-165.066407 0-109.882812-90.386719-198.214843-199.398438-196.5781245zm0 0"/>
  <path
    d="m324.347656 252.996094c4.234375 1.589844 8.957032-.550782 10.546875-4.785156 41.761719-111.132813-58.621093-223.960938-174.09375-195.105469-79.300781 19.8125-127.273437 99.816406-107.472656 179.070312 16.464844 65.890625 75.335937 111.910157 143.167969 111.910157 49.183594 0 96.007812-24.46875 123.738281-66.941407 2.472656-3.789062 1.410156-8.863281-2.378906-11.335937-3.785157-2.476563-8.863281-1.40625-11.335938 2.378906-24.707031 37.839844-66.394531 59.519531-110.023437 59.519531-60.296875 0-112.636719-40.917969-127.273438-99.5-17.621094-70.523437 25.085938-141.601562 95.550782-159.210937 104.628906-26.144532 191.140624 76.707031 154.789062 173.453125-1.589844 4.234375.550781 8.957031 4.785156 10.546875zm0 0"/>
  <path
    d="m248.773438 119.707031c-9.066407 9.203125-63.21875 64.871094-91.078126 95.792969-9.003906-10.53125-19.753906-23.761719-29.371093-36.179688-5.8125-7.507812-14.597657-11.8125-24.101563-11.8125-24.972656 0-39.691406 28.925782-24.070312 49.097657 18.980468 24.472656 30.058594 37.015625 47.652344 57.542969 15.738281 18.617187 44 18.609374 59.601562 1.730468l104.972656-113.640625c5.554688-5.714843 8.613282-13.246093 8.613282-21.222656 0-26.972656-33.019532-40.921875-52.21875-21.308594zm32.324218 10.519531c5.457032 5.339844 6.605469 14.472657.074219 21.515626l-105 113.667968c-10.25 10.65625-27.273437 9.90625-36.675781-1.21875-16.992188-19.828125-29.183594-33.683594-47.199219-56.980468-2.066406-2.671876-3.160156-5.863282-3.160156-9.226563 0-14.453125 18.304687-20.546875 27.042969-9.261719 11.929687 15.402344 25.601562 32.066406 35.683593 43.484375 3.058594 3.464844 8.46875 3.460938 11.523438-.011719 9.160156-10.421874 23.023437-25.394531 42.378906-45.769531 26.609375-28.011719 53.714844-55.703125 53.976563-55.976562 5.867187-5.984375 15.417968-6.039063 21.355468-.222657zm0 0"/>
</svg>
