<?xml version="1.0" encoding="utf-8"?>
<!-- Generator: Adobe Illustrator 24.3.0, SVG Export Plug-In . SVG Version: 6.00 Build 0)  -->
<svg version="1.1" id="Слой_1" xmlns="http://www.w3.org/2000/svg" xmlns:xlink="http://www.w3.org/1999/xlink" x="0px" y="0px"
	 viewBox="0 0 1000 1000" style="enable-background:new 0 0 1000 1000;" xml:space="preserve">
<style type="text/css">
	.st0{fill:#DD8903;}
	.st1{fill:#FBB03B;}
	.st2{fill:none;stroke:#000000;stroke-width:7.285;stroke-linecap:round;stroke-miterlimit:10;}
	.st3{fill:#CCCCCC;}
	.st4{fill:#FFFFFF;}
	.st5{fill:#030104;}
	.st6{fill:none;stroke:#030104;stroke-width:6.5565;stroke-linecap:round;stroke-linejoin:round;stroke-miterlimit:10;}
	.st7{fill:none;stroke:#000000;stroke-width:9.2984;stroke-linecap:round;stroke-linejoin:round;stroke-miterlimit:10;}
</style>
<g id="Основной_1_">
	<path class="st0" d="M509.05,853.52c43.69-72.48,218.99-373.39,218.99-484.04c0-126.25-102.35-228.6-228.6-228.6
		s-228.6,102.35-228.6,228.6c0,109.93,173.32,407.51,218.13,482.6C488.97,852.08,500.22,868.16,509.05,853.52z"/>
</g>
<g id="Основной_2_">
	<path class="st1" d="M728.42,373.67c0-125.3-99.32-226.88-221.83-226.88S284.76,248.37,284.76,373.67
		c0,109.1,215.93,485.2,221.23,486.32C509.16,860.67,728.42,483.49,728.42,373.67z"/>
</g>
<g id="Обводка_1">
	<path id="Основной_5_" class="st2" d="M710.86,453.49c-43.06,129.9-155.79,325.69-196.58,394.58
		c-9.42,15.91-20.58,15.91-30,0c-27.47-46.41-87.6-150.41-137.08-253.06"/>
	<path id="Основной_6_" class="st2" d="M417.35,158.3c25.44-9.79,53.06-15.15,81.94-15.15
		c126.25,0,228.6,102.54,228.6,229.03c0,10.64-1.62,23.04-4.58,36.82"/>
	<path id="Основной_4_" class="st2" d="M322.04,540.64c-29.83-67.51-51.35-129.65-51.35-168.46
		c0-80.04,40.98-150.49,103.06-191.44"/>
	<path class="st1" d="M396.84,848.07"/>
</g>
<g id="Внутренний">
	<circle class="st3" cx="499.44" cy="371.66" r="182.1"/>
</g>
<g id="Внутренний_1_">
	<circle class="st4" cx="507.66" cy="373.36" r="171.2"/>
</g>
<g id="Человек">
	<circle id="Голова" class="st5" cx="513.83" cy="256.72" r="25.88"/>
	<path id="Туловище" class="st5" d="M478.03,301.64c0.96-6.57,6.06-10.52,9.78-9.48l27.01,7.53
		c3.71,1.06,4.99,9.68,3.94,13.42l-22.25,91.35c-1.09,3.75-3.33,5.61-7.05,4.54l-18.24-3.95c-14.7-12.1-14.61-22.63-11.6-37.16
		L478.03,301.64z"/>
	<path id="Нога_2" class="st5" d="M454.87,406.61l-4.63,32.35c0,0-11.9,28.27-20.09,44.88c-6.19,12.58-9.1,21.65-4.84,23.92
		c6.53,3.47,15.3-4.31,24.49-18.64c15.41-24.03,23.34-36.04,26.31-41.88l4.66-15.25C480.76,432,457.88,416.85,454.87,406.61z"/>
	<path id="Нога_1" class="st5" d="M536.64,419.99L500.6,384.2c-5.68-5.73-14.17-3.03-19.92,2.66
		c-5.74,5.65-16.98,11-11.32,16.76l45.84,38.59l-5.07,49.45c-0.37,12.2,0.35,19.27,8.1,20.08c7.23,0.75,10.42-14.29,11.17-18.1
		c0,0,9.26-47.37,10.39-54.04C540.9,432.91,541.58,425.05,536.64,419.99z"/>
	<path id="Рука" class="st5" d="M580.22,313.88l-27.17,12.78l-34.23-24.99c-5.43-3.94-13.06-2.72-17.01,2.75
		c-3.94,5.44-2.72,13.05,2.75,17.01l36.91,26.73c3.47,2.5,8.81,3.81,12.71,2.12c0,0,25.35-15.4,32.15-19.83
		c7.13-4.67,14.58-10.8,11.83-15.95C594.25,307.1,587.13,310.54,580.22,313.88z"/>
	<line id="Палка" class="st6" x1="579.3" y1="300.37" x2="579.3" y2="507.69"/>
	<path id="Рюкзак" class="st5" d="M465.31,300.57c0,0-16.19,50.26-18.65,58.25c-2.46,7.99-11.02,13.53-23.12,9.84
		c-12.1-3.7-24.66-8.77-22.7-22.91c2.15-15.41,16.71-35.87,29.33-49.02C442.8,283.57,471.63,279,465.31,300.57z"/>
</g>
<g id="Обводка_2">
	<path id="Внутренний_6_" class="st7" d="M358.09,485.23c-25.58-31.36-40.92-71.4-40.92-115.03
		c0-100.57,81.53-182.1,182.1-182.1c11.33,0,22.42,1.04,33.18,3.02"/>
	<path id="Внутренний_2_" class="st7" d="M590.39,212.51c54.39,31.5,90.97,90.32,90.97,157.69
		c0,100.57-81.53,182.1-182.1,182.1c-36.75,0-70.96-10.89-99.57-29.61"/>
</g>
</svg>
