<svg height="511pt" viewBox="-59 0 511 511.99988" width="511pt" xmlns="http://www.w3.org/2000/svg"><path d="m386.019531 197.570312c0 66.492188-34.359375 124.960938-86.285156 158.625-7.820313 5.078126-14.351563 11.894532-18.949219 20.003907-.332031.585937-67.949218 120.074219-68.328125 120.632812-7.246093 11.527344-24.375 11.269531-31.195312-.78125l-67.84375-119.851562c-4.585938-8.097657-11.109375-14.917969-18.921875-19.976563-52.671875-34.132812-87.277344-93.777344-86.292969-161.4375 1.464844-101.714844 84.492187-184.699218 186.203125-186.113281 6.09375-.082031 12.125.121094 18.070312.601563 97.148438 7.8125 173.542969 89.132812 173.542969 188.296874zm0 0" fill="#ffa90b"/><path d="m386.019531 197.570312c0 66.492188-34.359375 124.960938-86.285156 158.625-7.820313 5.078126-14.351563 11.894532-18.949219 20.003907-.332031.585937-67.949218 120.074219-68.328125 120.632812-.378906-.558593-67.996093-120.046875-68.328125-120.632812-4.585937-8.097657-11.105468-14.917969-18.917968-19.976563-52.671876-34.132812-87.277344-93.777344-86.292969-161.4375 1.402343-97.464844 77.691406-177.730468 173.558593-185.511718 97.148438 7.8125 173.542969 89.132812 173.542969 188.296874zm0 0" fill="#ffb52d"/><path d="m336.589844 197.34375c0 44.902344-21.210938 84.839844-54.167969 110.351562-6.542969 5.070313-13.554687 9.574219-20.957031 13.421876-19.367188 10.089843-41.296875 15.71875-64.363282 15.71875-71.664062 0-130.707031-54.046876-138.589843-123.601563-.59375-5.210937-.902344-10.515625-.902344-15.890625 0-47.023438 23.273437-88.609375 58.929687-113.875 22.75-16.125 50.554688-25.605469 80.5625-25.605469 5.191407 0 10.320313.289063 15.355469.839844 69.8125 7.648437 124.132813 66.800781 124.132813 138.640625zm0 0" fill="#60c8dd"/><path d="m336.589844 197.34375c0 71.847656-54.320313 131.003906-124.132813 138.652344-69.8125-7.648438-124.132812-66.804688-124.132812-138.652344 0-71.839844 54.320312-130.992188 124.132812-138.640625 69.8125 7.648437 124.132813 66.800781 124.132813 138.640625zm0 0" fill="#a6e0ec"/><path d="m336.589844 197.34375c0 44.902344-21.210938 84.839844-54.167969 110.351562l-2.394531-2.558593-24.941406-50.523438c-9.558594-19.367187-10.707032-41.832031-3.152344-62.070312 2.027344-5.445313 3.011718-11.089844 3.011718-16.667969 0-23.640625-15.273437-35.023438-22.832031-41.554688-10.523437-9.070312-25.664062-10.421874-37.632812-3.367187-11.097657 6.527344-24.933594 5.890625-35.363281-1.578125-28.496094-20.425781-20.4375-11.929688-42.578126-45.90625 22.75-16.125 50.554688-25.605469 80.5625-25.605469 5.191407 0 10.320313.289063 15.355469.839844 69.8125 7.648437 124.132813 66.800781 124.132813 138.640625zm0 0" fill="#6dc54a"/><path d="m261.464844 321.117188c-19.367188 10.089843-41.296875 15.71875-64.363282 15.71875-71.664062 0-130.707031-54.046876-138.589843-123.601563l.113281-.011719 22.605469-3.359375c18.734375-2.773437 36.90625 7.75 43.828125 25.382813l2.773437 7.0625c6.082031 15.53125 21.039063 25.769531 37.714844 25.820312l24.140625.089844c16.820312.050781 31.871094 10.464844 37.859375 26.179688 2.601563 6.839843 6.953125 12.714843 12.449219 17.160156 6.707031 5.414062 13.25 7.605468 21.039062 8.8125h.011719zm0 0" fill="#6dc54a"/><path d="m212.457031 58.703125c-32.996093-3.621094-67.1875 4.402344-95.917969 24.765625l11.015626 16.914062c22.011718-22.761718 51.703124-38.042968 84.902343-41.679687zm0 0" fill="#5ca33b"/><path d="m88.855469 209.464844c-4.914063-.21875-5.792969.128906-30.230469 3.757812l-.113281.011719c8.539062 75.339844 76.628906 131.246094 153.945312 122.761719-65.839843-7.21875-117.910156-60.242188-123.601562-126.53125zm0 0" fill="#5ca33b"/><path d="m194.300781.0195312c-106.785156 1.4882808-193.800781 89.1718748-193.800781 196.5820308 0 66.925782 33.578125 128.640626 89.824219 165.089844 6.824219 4.421875 12.5 10.410156 16.40625 17.316406l29.824219 52.679688c2.089843 3.691406 6.773437 4.992188 10.464843 2.902344 3.691407-2.089844 4.988281-6.777344 2.898438-10.464844l-29.820313-52.683594c-5.125-9.046875-12.53125-16.875-21.421875-22.636718-51.9375-33.660157-83.722656-91.367188-82.800781-154.878907 1.410156-97.703125 82.652344-178.570312 181.226562-178.570312 99.9375 0 181.242188 81.308593 181.242188 181.242187 0 61.683594-30.945312 118.574219-82.78125 152.183594-8.917969 5.78125-16.339844 13.617188-21.460938 22.660156l-67.84375 119.855469c-4.03125 7.121094-14.28125 7.125-18.3125 0l-22.894531-40.445313c-2.089843-3.691406-6.777343-4.988281-10.464843-2.898437-3.691407 2.089844-4.992188 6.773437-2.902344 10.464844l22.898437 40.445312c9.910157 17.507813 35.117188 17.519531 45.039063 0l67.84375-119.855469c3.910156-6.902343 9.597656-12.898437 16.449218-17.34375 56.222657-36.449218 89.785157-98.15625 89.785157-165.0625 0-109.289062-89.65625-198.105468-199.398438-196.5820308zm0 0"/><path d="m58.828125 176.15625c-4.511719-.382812-8.476563 2.957031-8.859375 7.460938-7.417969 86.546874 61.019531 160.433593 147.132812 160.433593 81.394532 0 147.675782-66.238281 147.675782-147.675781 0-121.515625-139.09375-190.484375-235.761719-118.539062-25.109375 18.6875-43.347656 44.261718-52.738281 73.957031-1.367188 4.3125 1.023437 8.914062 5.335937 10.277343 4.3125 1.363282 8.917969-1.027343 10.28125-5.339843 7.9375-25.101563 22.804688-46.410157 42.101563-62.160157 18.023437 27.675782 11.785156 20.988282 40.351562 41.457032 13.351563 9.570312 30.71875 9.976562 44.289063 1.980468 8.980469-5.292968 20.296875-4.230468 28.128906 2.515626 6.683594 5.757812 19.992187 15.25 19.992187 35.351562 0 14.703125-7.957031 19.71875-7.957031 44.054688 0 11.113281 2.101563 21.976562 6.25 32.289062 1.285157 3.195312 4.355469 5.136719 7.601563 5.136719 5.78125 0 9.757812-5.867188 7.59375-11.25-3.359375-8.355469-5.0625-17.164063-5.0625-26.175781 0-21.488282 7.953125-25.484376 7.953125-44.054688 0-27.539062-17.886719-41.046875-25.679688-47.761719-13.152343-11.332031-32.117187-13.070312-47.136719-4.21875-8.09375 4.769531-18.457031 4.535157-26.429687-1.179687-26.914063-19.289063-19.734375-11.847656-36.570313-37.707032 86.898438-54.335937 201.078126 8.074219 201.078126 111.367188 0 39.097656-17.1875 74.253906-44.390626 98.328125l-10.628906-21.527344c-2-4.058593-6.910156-5.722656-10.96875-3.71875-4.058594 2-5.722656 6.914063-3.71875 10.96875l12.117188 24.546875c-3.601563 2.457032-7.332032 4.738282-11.179688 6.832032-12.332031-2.492188-20.703125-10.523438-24.429687-20.324219-7.144531-18.75-25.425781-31.390625-45.480469-31.449219l-24.148438-.09375c-13.40625-.042969-25.226562-8.132812-30.117187-20.625l-2.773437-7.0625c-8.503907-21.660156-30.402344-33.78125-52.65625-30.488281l-14.003907 2.082031c-.347656-6.136719-.289062-12.320312.265625-18.828125.390625-4.503906-2.953125-8.472656-7.457031-8.859375zm28.382813 41.457031c13.234374 0 25.378906 8.285157 30.222656 20.625l2.769531 7.054688c7.355469 18.785156 25.144531 30.964843 45.3125 31.023437l24.144531.09375c13.335938.042969 25.484375 8.441406 30.230469 20.898438 3.640625 9.574218 10.214844 17.785156 18.964844 23.554687-76.253907 25.644531-156.648438-23.046875-170.898438-100.746093 15.988281-2.375 16.167969-2.503907 19.253907-2.503907zm0 0"/></svg>
