<?xml version="1.0" encoding="utf-8"?>
<!-- Generator: Adobe Illustrator 24.3.0, SVG Export Plug-In . SVG Version: 6.00 Build 0)  -->
<svg version="1.1" id="Слой_1" xmlns="http://www.w3.org/2000/svg" xmlns:xlink="http://www.w3.org/1999/xlink" x="0px" y="0px"
	 viewBox="0 0 511 511" style="enable-background:new 0 0 511 511;" xml:space="preserve">
<style type="text/css">
	.st0{fill:#FFA90B;}
	.st1{fill:#FFB52D;}
	.st2{fill:#424242;}
	.st3{fill:#616161;}
	.st4{fill:none;stroke:#000000;stroke-width:13.2979;stroke-linecap:round;stroke-miterlimit:10;}
	.st5{fill:#FFFFFF;stroke:#FFFFFF;stroke-miterlimit:10;}
	.st6{fill:#FFFFFF;stroke:#FFFFFF;stroke-width:4.7976;stroke-linecap:round;stroke-linejoin:round;stroke-miterlimit:10;}
</style>
<path class="st0" d="M444.6,197.2c0,66.4-34.3,124.7-86.1,158.3c-7.8,5.1-14.3,11.9-18.9,20c-0.3,0.6-67.8,119.8-68.2,120.4
	c-7.2,11.5-24.3,11.2-31.1-0.8l-67.7-119.6c-4.6-8.1-11.1-14.9-18.9-19.9c-52.6-34.1-87.1-93.6-86.1-161.1
	C69,92.9,151.9,10.1,253.4,8.7c6.1-0.1,12.1,0.1,18,0.6C368.4,17.1,444.6,98.2,444.6,197.2z"/>
<path class="st1" d="M444.6,197.2c0,66.4-34.3,124.7-86.1,158.3c-7.8,5.1-14.3,11.9-18.9,20c-0.3,0.6-67.8,119.8-68.2,120.4
	c-0.4-0.6-67.9-119.8-68.2-120.4c-4.6-8.1-11.1-14.9-18.9-19.9c-52.6-34.1-87.1-93.6-86.1-161.1C99.6,97.1,175.8,17,271.4,9.3
	C368.4,17.1,444.6,98.2,444.6,197.2z"/>
<path class="st2" d="M395.3,197c0,44.8-21.2,84.7-54.1,110.1c-6.5,5.1-13.5,9.6-20.9,13.4c-19.3,10.1-41.2,15.7-64.2,15.7
	c-71.5,0-130.5-53.9-138.3-123.4c-0.6-5.2-0.9-10.5-0.9-15.9c0-46.9,23.2-88.4,58.8-113.7c22.7-16.1,50.5-25.6,80.4-25.6
	c5.2,0,10.3,0.3,15.3,0.8C341.1,66.2,395.3,125.3,395.3,197z"/>
<path class="st3" d="M395.3,197c0,71.7-54.2,130.7-123.9,138.4c-69.7-7.6-123.9-66.7-123.9-138.4S201.7,66.3,271.4,58.6
	C341.1,66.2,395.3,125.3,395.3,197z"/>
<path d="M253.3,0C146.7,1.5,59.9,89,59.9,196.2c0,66.8,33.5,128.4,89.6,164.8c6.8,4.4,12.5,10.4,16.4,17.3l29.8,52.6
	c2.1,3.7,6.8,5,10.4,2.9c3.7-2.1,5-6.8,2.9-10.4l-29.8-52.6c-5.1-9-12.5-16.8-21.4-22.6C106,314.6,74.2,257,75.2,193.6
	C76.6,96,157.7,15.3,256.1,15.3c99.7,0,180.9,81.1,180.9,180.9c0,61.6-30.9,118.3-82.6,151.9c-8.9,5.8-16.3,13.6-21.4,22.6
	l-67.7,119.6c-4,7.1-14.3,7.1-18.3,0L224.1,450c-2.1-3.7-6.8-5-10.4-2.9c-3.7,2.1-5,6.8-2.9,10.4l22.9,40.4c9.9,17.5,35,17.5,45,0
	l67.7-119.6c3.9-6.9,9.6-12.9,16.4-17.3c56.1-36.4,89.6-98,89.6-164.7C452.3,87.1,362.8-1.5,253.3,0z"/>
<path class="st4" d="M306.6,66.3c52.4,20.3,89.5,71.1,89.5,130.6c0,77.3-62.7,140-140,140c-36.5,0-69.7-13.9-94.6-36.8"/>
<path class="st4" d="M140,275.3c-15.1-22.4-23.9-49.3-23.9-78.3c0-77.3,62.7-140,140-140c6.4,0,12.7,0.4,18.9,1.3"/>
<g id="Человек">
	<circle id="Голова" class="st5" cx="265.8" cy="109.2" r="18.9"/>
	<path id="Туловище" class="st5" d="M239.6,142.1c0.7-4.8,4.4-7.7,7.1-6.9l19.8,5.5c2.7,0.8,3.7,7.1,2.9,9.8l-16.3,66.9
		c-0.8,2.8-2.4,4.1-5.1,3.3l-13.3-2.9c-10.8-8.9-10.7-16.6-8.5-27.2L239.6,142.1z"/>
	<path id="Нога_2" class="st5" d="M222.7,218.9l-3.4,23.7c0,0-8.7,20.7-14.7,32.8c-4.5,9.2-6.7,15.8-3.5,17.5
		c4.8,2.6,11.2-3.1,17.9-13.7c11.3-17.5,17.1-26.4,19.3-30.7l3.4-11.2C241.6,237.4,224.9,226.4,222.7,218.9z"/>
	<path id="Нога_1" class="st5" d="M282.6,228.7l-26.4-26.2c-4.2-4.2-10.3-2.2-14.6,1.9c-4.2,4.2-12.4,8-8.3,12.3l33.6,28.2
		l-3.7,36.2c-0.3,8.9,0.3,14.1,5.9,14.7c5.3,0.6,7.6-10.5,8.2-13.2c0,0,6.8-34.7,7.6-39.5C285.7,238.1,286.2,232.4,282.6,228.7z"/>
	<path id="Рука" class="st5" d="M314.4,151l-19.9,9.4l-25-18.2c-4-2.9-9.6-2-12.4,2c-2.9,4-2,9.6,2,12.4l27,19.6
		c2.6,1.8,6.5,2.8,9.3,1.5c0,0,18.5-11.2,23.5-14.5c5.2-3.4,10.7-7.9,8.7-11.7C324.7,146.1,319.5,148.6,314.4,151z"/>
	<line id="Палка" class="st6" x1="313.8" y1="141.2" x2="313.8" y2="292.9"/>
	<path id="Рюкзак" class="st5" d="M230.3,141.3c0,0-11.9,36.8-13.7,42.6c-1.8,5.8-8,9.9-16.9,7.2s-18-6.5-16.6-16.8
		c1.6-11.3,12.2-26.2,21.4-35.9C213.9,128.9,235,125.5,230.3,141.3z"/>
</g>
</svg>
