<?xml version="1.0" encoding="utf-8"?>
<!-- Generator: Adobe Illustrator 24.3.0, SVG Export Plug-In . SVG Version: 6.00 Build 0)  -->
<svg version="1.1" id="Слой_1" xmlns="http://www.w3.org/2000/svg" x="0px"
     y="0px"
     viewBox="0 0 512 512" style="enable-background:new 0 0 512 512;" xml:space="preserve">
<style type="text/css">
	.st0 {
    fill: #5CA33B;
  }

  .st1 {
    fill: #6DC54A;
  }

  .st2 {
    fill: #C2EAF2;
  }

  .st3 {
    fill: #DEF4F8;
  }

  .st4 {
    fill: none;
    stroke: #000000;
    stroke-width: 13.2979;
    stroke-linecap: round;
    stroke-miterlimit: 10;
  }
</style>
  <path class="st0" d="M444.5,197.6c0,66.5-34.4,125-86.3,158.6c-7.8,5.1-14.4,11.9-18.9,20l-67.8,119.9c-0.2,0.3-0.3,0.5-0.5,0.8
	c-7.2,11.5-24.4,11.3-31.2-0.8l-67.8-119.9c-4.6-8.1-11.1-14.9-18.9-20c-52.7-34.1-87.3-93.8-86.3-161.4
	C68.2,93.1,151.2,10.1,252.9,8.7C259,8.6,265,8.8,271,9.3C368.1,17.1,444.5,98.4,444.5,197.6z"/>
  <path class="st1" d="M444.5,197.6c0,66.5-34.4,125-86.3,158.6c-7.8,5.1-14.4,11.9-18.9,20l-67.8,119.9c-0.2,0.3-0.3,0.5-0.5,0.8
	c-0.2-0.3-0.3-0.5-0.5-0.8l-67.8-119.9c-4.6-8.1-11.1-14.9-18.9-20c-52.7-34.1-87.3-93.8-86.3-161.4C98.8,97.3,175.1,17,271,9.3
	C368.1,17.1,444.5,98.4,444.5,197.6z"/>
  <path class="st2" d="M395.1,197.3c0,77.1-62.5,139.5-139.5,139.5c-77,0-139.5-62.5-139.5-139.5c0-82.8,71.9-147.8,154.9-138.6
	C340.8,66.3,395.1,125.5,395.1,197.3z"/>
  <path class="st3" d="M395.1,197.3c0,71.8-54.3,131-124.1,138.7c-69.8-7.6-124.1-66.8-124.1-138.7c0-71.8,54.3-131,124.1-138.6
	C340.8,66.3,395.1,125.5,395.1,197.3z"/>
  <path d="M252.8,0C146,1.5,59,89.2,59,196.6c0,66.9,33.6,128.7,89.8,165.1c6.8,4.4,12.5,10.4,16.4,17.3l29.8,52.7
	c2.1,3.7,6.8,5,10.5,2.9c3.7-2.1,5-6.8,2.9-10.5l-29.8-52.7c-10.6-18.6-22.1-21.5-39-35.6C98.4,301.6,74.4,251,74.4,196.6
	c0-99.3,82.1-181.2,181.2-181.2c99.9,0,181.2,81.3,181.2,181.2c0,54.4-24,105-65.2,139.3c-42.8,35.6-12.1-12-106.9,155.5
	c-4,7.1-14.3,7.1-18.3,0l-22.9-40.4c-2.1-3.7-6.8-5-10.5-2.9c-3.7,2.1-5,6.8-2.9,10.5l22.9,40.4c9.9,17.5,35.1,17.5,45,0L346,379
	c3.9-6.9,9.6-12.9,16.4-17.4c56.2-36.4,89.8-98.1,89.8-165.1C452.2,88.5,364.1-1.2,252.8,0z"/>
  <path class="st4" d="M305.5,66.8c52.4,20.3,89.5,71.1,89.5,130.6c0,77.3-62.7,140-140,140c-36.5,0-69.7-13.9-94.6-36.8"/>
  <path class="st4" d="M138.9,275.8c-15.1-22.4-23.9-49.3-23.9-78.3c0-77.3,62.7-140,140-140c6.4,0,12.7,0.4,18.9,1.3"/>
  <g id="Тент">
	<g>
		<path d="M351.4,236.9l-39.3-92c-0.9-2.1-3-3.5-5.3-3.5H239c-1.9,0-3.8,1-4.8,2.6c-1.1,1.6-1.3,3.7-0.5,5.5l39.3,92
			c0.9,2.1,3,3.5,5.3,3.5h67.8c1.9,0,3.8-1,4.8-2.6C352,240.8,352.2,238.7,351.4,236.9z"/>
	</g>
</g>
  <g id="Вход">
	<g>
		<path d="M263.7,236.9l-39.3-92c-0.9-2.1-3-3.5-5.3-3.5s-4.4,1.4-5.3,3.5l-39.3,92c-0.8,1.8-0.6,3.8,0.5,5.5
			c1.1,1.6,2.9,2.6,4.8,2.6h23.3c1.7,0,3.2-1.2,3.5-2.9l9-46.8c0.7-3.8,6.2-3.8,6.9,0l9,46.8c0.3,1.7,1.8,2.9,3.5,2.9l23.9,0
			c0.4,0,0.8-0.1,1.2-0.2C263.6,243.5,264.9,239.9,263.7,236.9z"/>
	</g>
</g>
</svg>
