<?xml version="1.0" encoding="utf-8"?>
<!-- Generator: Adobe Illustrator 24.3.0, SVG Export Plug-In . SVG Version: 6.00 Build 0)  -->
<svg version="1.1" id="Слой_1" xmlns="http://www.w3.org/2000/svg" xmlns:xlink="http://www.w3.org/1999/xlink" x="0px" y="0px"
	 viewBox="0 0 1000 1000" style="enable-background:new 0 0 1000 1000;" xml:space="preserve">
<style type="text/css">
	.st0{fill:#44BFD7;}
	.st1{fill:#7CD2E3;}
	.st2{fill:#13A4D8;}
	.st3{fill:#29ABE2;}
	.st4{fill:none;stroke:#000000;stroke-width:20.0908;stroke-linecap:round;stroke-miterlimit:10;}
	.st5{fill:#FFFFFF;}
</style>
<path class="st0" d="M784.3,410.2c0,100.3-51.8,188.4-130.1,239.2c-11.8,7.7-21.6,18-28.6,30.2c-0.5,0.9-102.4,181-103,181.9
	c-10.9,17.4-36.7,16.9-47-1.2L373.3,679.6c-6.9-12.2-16.8-22.5-28.6-30.1C265.3,598,213.2,508.1,214.7,406.1
	c2.1-153.5,127.4-278.6,280.7-280.7c9.2-0.2,18.3,0.2,27.2,0.9C669.1,138.1,784.3,260.6,784.3,410.2z"/>
<path class="st1" d="M784.3,410.2c0,100.3-51.8,188.4-130.1,239.2c-11.8,7.7-21.6,18-28.6,30.2c-0.5,0.9-102.4,181-103,181.9
	c-0.6-0.9-102.6-181-103-181.9c-6.9-12.2-16.8-22.5-28.6-30.1C311.5,598,259.4,508.1,260.9,406.1C263,259,378.2,138,522.6,126.3
	C669.1,138.1,784.3,260.6,784.3,410.2z"/>
<path class="st2" d="M709.8,409.9c0,67.7-32,128-81.7,166.3c-9.8,7.7-20.4,14.5-31.6,20.2c-29.2,15.3-62.2,23.7-97,23.7
	c-108,0-197.2-81.4-208.9-186.4c-0.9-7.9-1.4-15.9-1.4-24c0-70.9,35.1-133.6,88.8-171.8c34.3-24.3,76.3-38.7,121.5-38.7
	c7.9,0,15.6,0.5,23.1,1.2C627.9,212.3,709.8,301.6,709.8,409.9z"/>
<path class="st3" d="M709.8,409.9c0,108.3-81.9,197.5-187.2,209.1c-105.3-11.5-187.2-100.8-187.2-209.1s81.9-197.5,187.2-209.1
	C627.9,212.3,709.8,301.6,709.8,409.9z"/>
<path d="M495.2,112.3C334.2,114.5,203,246.7,203,408.7c0,100.9,50.6,194,135.4,249c10.3,6.6,18.9,15.7,24.8,26.1l45,79.5
	c3.2,5.6,10.3,7.6,15.7,4.4c5.6-3.2,7.6-10.3,4.4-15.7l-45-79.5c-7.7-13.6-18.9-25.4-32.3-34.1c-78.3-50.8-126.3-137.8-124.8-233.6
	c2.1-147.5,124.6-269.4,273.3-269.4c150.6,0,273.3,122.5,273.3,273.3c0,93.1-46.7,178.7-124.8,229.5c-13.4,8.8-24.6,20.5-32.3,34.1
	L513.4,853c-6,10.7-21.6,10.7-27.6,0l-34.6-60.9c-3.2-5.6-10.3-7.6-15.7-4.4c-5.6,3.2-7.6,10.3-4.4,15.7l34.6,61
	c15,26.4,52.9,26.4,68,0l102.3-180.7c5.9-10.4,14.5-19.5,24.8-26.1c84.8-55,135.4-148.1,135.4-248.8
	C795.9,243.9,660.7,110,495.2,112.3z"/>
<path class="st4" d="M575.8,212.4C654.9,243.1,711,319.9,711,409.8c0,116.8-94.7,211.5-211.5,211.5c-55.1,0-105.3-21-142.9-55.6"/>
<path class="st4" d="M324.1,528.2c-22.8-33.8-36.1-74.5-36.1-118.3c0-116.8,94.7-211.5,211.5-211.5c9.7,0,19.2,0.6,28.6,2"/>
<g id="Лодка">
	<g>
		<path class="st5" d="M624.9,512.1c0-4.9-4-8.8-8.8-8.7c-0.3,0-0.5,0-0.8,0c-6.8,0-16.6-1.6-24.6-6.1c-2.6-1.5-5.9-1.5-8.5,0
			c-8,4.5-17.8,6.1-24.6,6.1c-6.8,0-16.6-1.6-24.6-6.1c-2.6-1.5-5.9-1.5-8.5,0c-8,4.5-17.8,6.1-24.6,6.1s-16.6-1.6-24.6-6.1
			c-2.6-1.5-5.9-1.5-8.5,0c-8,4.5-17.8,6.1-24.6,6.1s-16.6-1.6-24.6-6.1c-2.6-1.5-5.9-1.5-8.5,0c-8,4.5-17.8,6.1-24.6,6.1
			c-0.3,0-0.5,0-0.8,0c-4.9-0.1-8.8,3.9-8.8,8.7v0c0,4.8,3.9,8.7,8.7,8.7c0.3,0,0.6,0,0.9,0c12.7,0,19.2-2.4,24.3-5.6
			c2.7-1.7,6.2-1.9,9-0.3c8,4.4,17.6,5.9,24.3,5.9c6.8,0,16.6-1.6,24.6-6.1c2.6-1.5,5.9-1.5,8.5,0c8,4.5,17.8,6.1,24.6,6.1
			s16.6-1.6,24.6-6.1c2.6-1.5,5.9-1.5,8.5,0c8,4.5,17.8,6.1,24.6,6.1c6.8,0,16.6-1.6,24.6-6.1c2.6-1.5,5.9-1.5,8.5,0
			c8,4.5,17.8,6.1,24.6,6.1c0.4,0,0.8,0,1.2,0C621.2,520.7,624.9,516.8,624.9,512.1L624.9,512.1z"/>
	</g>
	<g>
		<path class="st5" d="M584.8,383.9c-3.7-1.8-85.6-40.6-85.6-40.6c-13.4-7.3-24.8-1.7-32.8,11.5l-49.9,81.3c-1.5,3.2-1.1,7,1.1,9.8
			c1.8,2.4,4.7,3.8,7.7,3.8c0.5,0,1,0,1.5-0.1l55.7-8.1c3.1-0.5,5.7-2.4,7.1-5.2l32.5-51.7c0,0,47.6,19.1,51.7,21
			c5.3,2.5,14.8,3.7,18.5-4.2C595.8,393.5,590.4,386.6,584.8,383.9z"/>
	</g>
	<g>
		<g>
			<path class="st5" d="M505.2,490.3l58.5-52.7c4.7-4.2,1.7-11.9-4.6-11.9H379.7c-5.3,0-4.6,4.3-4.6,9.6c0,10.7,5.7,19.9,14.2,27.3
				c4.7,4.2,2,12-4.4,12c-0.1,0-0.1,0-0.2,0c-0.9,0-1.7,0-2.5-0.1c-3.9-0.2-7.1,3-7.1,6.8v3.8c0,3.7,2.9,6.7,6.6,6.8c1,0,2,0,3,0
				c13.3,0,19.9-2.6,25.1-6.1c2.2-1.5,5.1-1.6,7.4-0.2c8.1,4.8,18.2,6.4,25.1,6.4c7,0,17.2-1.7,25.3-6.5c2.2-1.3,4.9-1.3,7,0
				c8.1,4.8,18.3,6.5,25.3,6.5c0.3,0,0.7,0,1.1,0C502.6,491.9,504.1,491.3,505.2,490.3z"/>
		</g>
		<g>
			<path class="st5" d="M615.3,474.6c-2.2,0-4.7-0.2-7.4-0.6c-7.4-1.1-10-10.5-4.3-15.3c8-6.6,15-14.4,19.5-23.1
				c3.4-6.6,0.8-9.9-5.9-9.9h-18.4c-2.2,0-4.2,0.8-5.8,2.2l-52.7,47.4c-5.1,4.6-3.1,13.1,3.5,14.9c5,1.3,9.8,1.9,13.7,1.9
				c6.8,0,16.6-1.6,24.6-6.1c2.6-1.5,5.9-1.5,8.5,0c8,4.5,17.8,6.1,24.6,6.1c0.4,0,0.8,0,1.2,0c4.7-0.2,8.4-4,8.4-8.7v0
				c0-4.9-4-8.8-8.8-8.7C615.8,474.6,615.6,474.6,615.3,474.6z"/>
		</g>
	</g>
	<g>
		<circle class="st5" cx="524" cy="315.1" r="24"/>
	</g>
</g>
</svg>
